Coordinates
version=1
nRows=11
nColumns=33
inDegrees=yes

Units are S.I. units (second, meters, Newtons, ...)
Angles are in degrees.

endheader
time	ground_thorax_rot_x	ground_thorax_rot_y	ground_thorax_rot_z	ground_thorax_tx	ground_thorax_ty	ground_thorax_tz	clav_prot_r	clav_elev_r	scapula_abduction_r	scapula_elevation_r	scapula_upward_rot_r	scapula_winging_r	shoulder_elv_r	plane_of_elev_r	axial_rot_r	elbow_flexion_r	pro_sup_r	wrist_flex_r	wrist_dev_r	clav_prot_l	clav_elev_l	scapula_abduction_l	scapula_elevation_l	scapula_upward_rot_l	scapula_winging_l	shoulder_elv_l	plane_of_elev_l	axial_rot_l	elbow_flexion_l	pro_sup_l	wrist_flex_l	wrist_dev_l	
9.0800	-33.065040	-20.386658	35.602281	-173.908878	807.747441	6.294629	6.799971	-45.000000	39.170942	-45.000000	-34.172623	-2261.188382	-1729.857851	32.620375	64.552193	1812.655503	21.135600	19.173544	8.629783	14.659438	37.805447	-36.537330	-45.000000	-45.000000	1884.021651	-3335.406089	135.894428	168.259072	369.608015	-5.665930	10.222895	-18.421380	
9.0900	-33.231141	-20.123015	35.186272	-176.115845	808.650654	6.326397	6.776052	-45.000000	39.192567	-45.000000	-34.041938	-2261.264085	-1729.730678	32.645054	64.472863	1812.631270	20.103569	19.140551	8.666438	14.651213	37.795677	-36.591529	-45.000000	-45.000000	1884.122266	-3335.342833	135.889853	168.217165	369.654007	-6.208920	10.207658	-18.415019	
9.1000	-33.395030	-19.863289	34.777503	-178.294009	809.546946	6.352457	6.754106	-45.000000	39.206458	-45.000000	-33.920512	-2261.340654	-1729.609173	32.669548	64.406056	1812.607921	19.103008	19.109291	8.695353	14.640668	37.787898	-36.642311	-45.000000	-45.000000	1884.220180	-3335.280818	135.894199	168.147146	369.704233	-6.727601	10.188441	-18.412156	
9.1100	-33.557373	-19.606089	34.375054	-180.442756	810.435596	6.373605	6.733528	-45.000000	39.213815	-45.000000	-33.809627	-2261.417055	-1729.493447	32.694208	64.353874	1812.583051	18.133851	19.079333	8.716291	14.627580	37.781284	-36.691882	-45.000000	-45.000000	1884.316165	-3335.219110	135.903854	168.056051	369.754870	-7.218788	10.163432	-18.413247	
9.1200	-33.712010	-19.361840	33.988933	-182.561264	811.316622	6.390979	6.718863	-45.000000	39.217561	-45.000000	-33.720653	-2261.492740	-1729.382515	32.718633	64.325536	1812.556971	17.184647	19.050901	8.734252	14.618599	37.765311	-36.729754	-45.000000	-45.000000	1884.411967	-3335.160208	135.915375	167.951769	369.799520	-7.684745	10.126922	-18.416895	
9.1300	-33.863750	-19.124141	33.611450	-184.648682	812.190745	6.405810	6.705907	-45.000000	39.218807	-45.000000	-33.642941	-2261.566757	-1729.275780	32.740830	64.316604	1812.530431	16.252860	19.023838	8.746985	14.608612	37.748820	-36.764468	-45.000000	-45.000000	1884.508315	-3335.104723	135.930792	167.827529	369.841622	-8.119126	10.079661	-18.424686	
9.1400	-34.011874	-18.895759	33.245211	-186.704362	813.059163	6.419251	6.695697	-45.000000	39.215852	-45.000000	-33.577334	-2261.640382	-1729.173812	32.761820	64.329250	1812.505726	15.337482	18.998162	8.754146	14.599966	37.729056	-36.791978	-45.000000	-45.000000	1884.604469	-3335.052087	135.950469	167.690183	369.881105	-8.518034	10.019785	-18.436288	
9.1500	-34.157546	-18.674602	32.887957	-188.728041	813.923240	6.432134	6.688528	-45.000000	39.209078	-45.000000	-33.525542	-2261.713068	-1729.077280	32.784678	64.363785	1812.481105	14.441662	18.973261	8.755414	14.593529	37.703910	-36.813309	-45.000000	-45.000000	1884.699504	-3334.999991	135.971060	167.550171	369.914513	-8.877118	9.946811	-18.450733	
9.1600	-34.301078	-18.460877	32.540602	-190.719988	814.784098	6.445003	6.684455	-45.000000	39.199215	-45.000000	-33.484794	-2261.784748	-1728.986552	32.807957	64.419029	1812.455872	13.570275	18.949113	8.751612	14.589234	37.674550	-36.828990	-45.000000	-45.000000	1884.793243	-3334.949043	135.993132	167.406468	369.941614	-9.191557	9.859757	-18.467817	
9.1700	-34.442782	-18.254328	32.206058	-192.681075	815.642270	6.458116	6.685278	-45.000000	39.184597	-45.000000	-33.457568	-2261.856655	-1728.902256	32.832148	64.493734	1812.428247	12.728506	18.925407	8.741133	14.587516	37.639811	-36.839164	-45.000000	-45.000000	1884.882546	-3334.897256	136.018250	167.266076	369.962411	-9.460409	9.761201	-18.486339	
9.1800	-34.584950	-18.048845	31.879652	-194.612620	816.497414	6.471659	6.683075	-45.000000	39.169221	-45.000000	-33.427465	-2261.927691	-1728.819099	32.846867	64.576311	1812.405077	11.930061	18.905181	8.723544	14.581828	37.614750	-36.851883	-45.000000	-45.000000	1884.968910	-3334.850124	136.050699	167.111655	369.985532	-9.680556	9.656050	-18.507881	
